<svg width="376" height="47" viewBox="0 0 376 47" fill="none" xmlns="http://www.w3.org/2000/svg">
<g clip-path="url(#clip0_1152_141)">
<path d="M376 203L9.77516e-05 203L8.01681e-05 41.5248C8.01681e-05 41.5248 -0.000155827 -23.7971 193.5 9.41588C300.44 27.7714 376 41.5248 376 41.5248L376 203Z" fill="#004D99"/>
<path d="M376.002 203L0.00186157 203L0.00184451 46.2975C0.00184451 46.2975 0.00160872 -17.0937 193.502 15.1376C300.442 32.9506 376.002 46.2975 376.002 46.2975L376.002 203Z" fill="black" fill-opacity="0.3"/>
</g>
<defs>
<clipPath id="clip0_1152_141">
<path d="M0 16C0 7.16345 7.16344 0 16 0H360C368.837 0 376 7.16344 376 16V47H0V16Z" fill="white"/>
</clipPath>
</defs>
</svg>
