<svg width="314" height="272" viewBox="0 0 314 272" fill="none" xmlns="http://www.w3.org/2000/svg">
<g clip-path="url(#clip0_904_3449)">
<path d="M313.5 268.628L89.4398 272L0.5 256.264H139.347L313.5 268.628Z" fill="#E6F3FF"/>
<path d="M258.517 71.5592C278.312 71.5592 294.359 55.5402 294.359 35.7796C294.359 16.0191 278.312 0 258.517 0C238.722 0 222.675 16.0191 222.675 35.7796C222.675 55.5402 238.722 71.5592 258.517 71.5592Z" fill="#E6F3FF"/>
<path d="M63.9058 258.135C63.9058 258.135 64.43 247.168 75.1778 248.443L63.9058 258.135Z" fill="#01417F"/>
<path d="M60.8689 247.699C63.8397 247.699 66.2481 245.295 66.2481 242.329C66.2481 239.363 63.8397 236.959 60.8689 236.959C57.8981 236.959 55.4897 239.363 55.4897 242.329C55.4897 245.295 57.8981 247.699 60.8689 247.699Z" fill="#0176E5"/>
<path d="M61.5121 251.371H59.9937V261.982H61.5121V251.371Z" fill="#01417F"/>
<path d="M241.052 260.008C241.052 260.008 241.577 249.041 252.324 250.316L241.052 260.008Z" fill="#01417F"/>
<path d="M238.015 249.572C240.986 249.572 243.395 247.168 243.395 244.202C243.395 241.237 240.986 238.832 238.015 238.832C235.045 238.832 232.636 241.237 232.636 244.202C232.636 247.168 235.045 249.572 238.015 249.572Z" fill="#0176E5"/>
<path d="M238.659 253.245H237.14V263.855H238.659V253.245Z" fill="#01417F"/>
<path d="M266.949 261.881C266.949 261.881 267.473 250.915 278.221 252.189L266.949 261.881Z" fill="#01417F"/>
<path d="M263.912 251.445C266.883 251.445 269.291 249.041 269.291 246.075C269.291 243.11 266.883 240.706 263.912 240.706C260.941 240.706 258.533 243.11 258.533 246.075C258.533 249.041 260.941 251.445 263.912 251.445Z" fill="#0176E5"/>
<path d="M264.555 255.118H263.037V265.728H264.555V255.118Z" fill="#01417F"/>
<path d="M106.316 252.889C106.316 252.889 106.84 241.923 117.588 243.198L106.316 252.889Z" fill="#01417F"/>
<path d="M103.279 242.453C106.25 242.453 108.658 240.049 108.658 237.084C108.658 234.118 106.25 231.714 103.279 231.714C100.308 231.714 97.8999 234.118 97.8999 237.084C97.8999 240.049 100.308 242.453 103.279 242.453Z" fill="#0176E5"/>
<path d="M103.922 246.126H102.404V256.736H103.922V246.126Z" fill="#01417F"/>
<path d="M26.375 254.763C26.375 254.763 26.8993 243.796 37.647 245.071L26.375 254.763Z" fill="#01417F"/>
<path d="M23.3382 244.327C26.309 244.327 28.7173 241.923 28.7173 238.957C28.7173 235.991 26.309 233.587 23.3382 233.587C20.3673 233.587 17.959 235.991 17.959 238.957C17.959 241.923 20.3673 244.327 23.3382 244.327Z" fill="#0176E5"/>
<path d="M23.9813 247.999H22.4629V258.61H23.9813V247.999Z" fill="#01417F"/>
<path d="M156.432 235.706C188.8 235.706 215.039 209.513 215.039 177.202C215.039 144.891 188.8 118.697 156.432 118.697C124.065 118.697 97.8257 144.891 97.8257 177.202C97.8257 209.513 124.065 235.706 156.432 235.706Z" fill="#015CB2"/>
<path d="M119.536 181.898C120.991 180.159 122.812 178.759 124.869 177.799C126.925 176.839 129.168 176.341 131.438 176.341C133.709 176.341 135.952 176.839 138.008 177.799C140.065 178.759 141.885 180.159 143.341 181.898C145.832 179.525 147.553 176.461 148.283 173.102C149.014 169.743 148.72 166.242 147.439 163.052C146.158 159.861 143.95 157.126 141.098 155.2C138.246 153.274 134.882 152.245 131.438 152.245C127.995 152.245 124.631 153.274 121.779 155.2C118.927 157.126 116.719 159.861 115.438 163.052C114.157 166.242 113.863 169.743 114.593 173.102C115.324 176.461 117.045 179.525 119.536 181.898Z" fill="white"/>
<path d="M166.077 181.898C167.532 180.159 169.353 178.76 171.41 177.799C173.466 176.839 175.709 176.342 177.979 176.342C180.25 176.342 182.493 176.839 184.549 177.799C186.606 178.76 188.426 180.159 189.882 181.898C192.373 179.525 194.094 176.461 194.824 173.102C195.555 169.743 195.261 166.243 193.98 163.052C192.699 159.861 190.491 157.127 187.639 155.2C184.787 153.274 181.423 152.245 177.979 152.245C174.536 152.245 171.172 153.274 168.32 155.2C165.468 157.127 163.26 159.861 161.979 163.052C160.698 166.243 160.404 169.743 161.134 173.102C161.865 176.461 163.586 179.525 166.077 181.898Z" fill="white"/>
<path d="M125.558 169.512C128.833 169.512 131.488 166.862 131.488 163.593C131.488 160.324 128.833 157.673 125.558 157.673C122.284 157.673 119.629 160.324 119.629 163.593C119.629 166.862 122.284 169.512 125.558 169.512Z" fill="#01417F"/>
<path d="M172.097 169.512C175.372 169.512 178.027 166.862 178.027 163.593C178.027 160.324 175.372 157.673 172.097 157.673C168.823 157.673 166.168 160.324 166.168 163.593C166.168 166.862 168.823 169.512 172.097 169.512Z" fill="#01417F"/>
<path d="M114.201 198.711C118.009 198.711 121.096 195.629 121.096 191.828C121.096 188.027 118.009 184.945 114.201 184.945C110.393 184.945 107.306 188.027 107.306 191.828C107.306 195.629 110.393 198.711 114.201 198.711Z" fill="#B3DAFF"/>
<path d="M193.493 198.711C197.301 198.711 200.387 195.629 200.387 191.828C200.387 188.027 197.301 184.945 193.493 184.945C189.685 184.945 186.598 188.027 186.598 191.828C186.598 195.629 189.685 198.711 193.493 198.711Z" fill="#B3DAFF"/>
<path d="M153.847 178.062L148.676 200.432L157.294 191.828L153.847 178.062Z" fill="#B3DAFF"/>
<path d="M180.418 264.098L174.547 259.18L174.683 264.098H172.86L172.714 258.897L164.788 264.098H161.469L172.655 256.759L172.222 241.347L171.898 229.708L173.717 229.658L174.045 241.347L174.478 256.745L183.253 264.098H180.418Z" fill="#01417F"/>
<path d="M152.836 264.098L146.965 259.18L147.102 264.098H145.283L145.137 258.897L137.21 264.098H133.892L145.073 256.759L144.64 241.347L144.317 229.708L146.14 229.658L146.468 241.347L146.897 256.745L155.671 264.098H152.836Z" fill="#01417F"/>
<path d="M157.295 114.396C155.686 114.396 154.268 115.643 153.319 117.558C152.483 114.678 150.727 112.675 148.676 112.675C148.536 112.689 148.398 112.712 148.262 112.744C147.473 109.669 145.641 107.513 143.505 107.513C140.649 107.513 138.333 111.365 138.333 116.116C138.333 120.868 140.649 124.72 143.505 124.72C143.644 124.706 143.782 124.683 143.919 124.65C144.707 127.725 146.54 129.882 148.676 129.882C150.284 129.882 151.703 128.635 152.651 126.72C153.487 129.6 155.243 131.603 157.295 131.603C160.15 131.603 162.466 127.751 162.466 122.999C162.466 118.248 160.15 114.396 157.295 114.396Z" fill="#01417F"/>
<path d="M101.423 199.373C99.1592 199.373 96.9178 198.927 94.8264 198.063C92.7351 197.198 90.8349 195.931 89.2343 194.333C87.6336 192.735 86.3639 190.838 85.4977 188.75C84.6314 186.663 84.1856 184.425 84.1856 182.165V173.562C84.1856 168.998 86.0016 164.621 89.2343 161.394C92.4669 158.167 96.8512 156.355 101.423 156.355V199.373Z" fill="#1B8FFE"/>
<path d="M211.442 156.354C213.706 156.354 215.947 156.8 218.039 157.664C220.13 158.529 222.03 159.797 223.631 161.394C225.232 162.992 226.501 164.889 227.368 166.977C228.234 169.064 228.68 171.302 228.68 173.562V182.165C228.68 184.425 228.234 186.663 227.368 188.75C226.501 190.838 225.232 192.735 223.631 194.333C222.03 195.93 220.13 197.198 218.039 198.063C215.947 198.927 213.706 199.372 211.442 199.372L211.442 156.354Z" fill="#1B8FFE"/>
<path d="M220.475 174.914H217.74C217.74 140.29 189.522 112.121 154.837 112.121C120.152 112.121 91.9341 140.29 91.9341 174.914H89.1992C89.1992 138.784 118.644 109.39 154.837 109.39C191.03 109.39 220.475 138.784 220.475 174.914Z" fill="#1B8FFE"/>
<path d="M60.9821 122.294L60.9826 122.293L59.6977 121.759L54.2764 119.471L52.3332 118.651L52.1841 119.027L49.5737 125.606L56.9201 128.71L56.9587 128.745L56.4636 129.911C56.3959 130.017 56.338 130.13 56.2909 130.247C55.9441 131.121 56.5991 131.99 57.2183 132.235C57.8374 132.48 58.6205 131.97 58.9673 131.096C59.3094 130.234 58.9751 129.138 58.3717 128.874L58.3722 128.873L57.0873 128.338L52.692 126.633L55.2034 120.303L54.8312 120.156L52.3188 126.488L51.7753 126.277L54.2975 119.92L54.3639 119.948L59.5305 122.131L59.569 122.166L59.074 123.331C59.0062 123.438 58.9484 123.55 58.9013 123.667C58.5545 124.542 59.2094 125.411 59.8286 125.656C60.4478 125.901 61.2309 125.39 61.5777 124.516C61.9197 123.654 61.5854 122.559 60.9821 122.294Z" fill="#01417F"/>
<path d="M86.4094 138.447C83.7426 136.925 84.2762 133.585 84.2762 133.585C84.2091 131.415 82.4132 131.722 82.4132 131.722L81.7596 131.871C81.456 131.73 81.1217 131.668 80.7877 131.691L79.7935 131.858C82.0574 132.389 81.8714 134.28 81.8714 134.28L82.1886 136.491L76.2564 134.102L76.9375 132.498C77.0316 132.35 77.1119 132.194 77.1774 132.031C77.659 130.817 76.7493 129.61 75.8894 129.27C75.0294 128.93 73.9418 129.638 73.4601 130.852C72.985 132.05 73.4494 133.571 74.2874 133.939L74.2867 133.94L76.0712 134.682L76.0845 134.64L86.4094 138.447ZM83.3969 134.563L83.5871 136.679C82.9154 135.738 82.5999 134.59 82.6966 133.438C82.6809 133.029 82.5425 132.633 82.2993 132.303C82.6731 132.542 82.9734 132.88 83.1671 133.278C83.3608 133.677 83.4403 134.122 83.3969 134.563Z" fill="#01417F"/>
<path d="M41.1575 107.154L41.1582 107.153L39.3737 106.411L31.9153 103.517L33.7977 101.845C34.166 101.355 34.7098 101.026 35.3154 100.927C35.9211 100.828 36.5416 100.966 37.0473 101.313L36.4631 100.447C36.4631 100.447 35.3649 98.9952 33.8277 100.531C33.8277 100.531 31.9256 103.33 28.938 102.616L39.1414 106.928L39.195 106.976L38.5074 108.594C38.4133 108.742 38.3329 108.899 38.2675 109.061C37.7858 110.275 38.6955 111.483 39.5555 111.823C40.4155 112.163 41.5031 111.454 41.9848 110.24C42.4598 109.043 41.9955 107.522 41.1575 107.154Z" fill="#01417F"/>
<path d="M68.463 97.6814L67.7754 99.2998C67.6813 99.4479 67.601 99.6042 67.5356 99.7669C67.0539 100.981 67.9636 102.188 68.8235 102.528C69.6835 102.868 70.7712 102.16 71.2528 100.946C71.7279 99.7485 71.2636 98.2272 70.4256 97.8596L70.4263 97.8582L68.6417 97.1163L62.537 94.7474L66.0251 85.9556L65.5081 85.7512L62.0187 94.5462L61.2639 94.2533L64.7668 85.424L64.8591 85.463L72.0349 88.4948L72.0885 88.5433L71.401 90.1616C71.3069 90.3097 71.2266 90.466 71.1611 90.6287C70.6794 91.8428 71.5891 93.0503 72.4491 93.3903C73.309 93.7303 74.3967 93.0218 74.8783 91.8078C75.3534 90.6103 74.8891 89.089 74.0511 88.7215L74.0518 88.72L72.2673 87.9782L64.9745 84.9006L64.7377 84.8007L62.0387 83.6617L58.2061 93.322L68.4094 97.633L68.463 97.6814Z" fill="#01417F"/>
<path d="M36.1284 48.2076L36.1297 48.2051L33.0577 46.9281L20.2185 41.9457L23.459 39.0677C23.459 39.0677 25.6145 36.0822 29.0529 38.1529L28.0474 36.661C28.0474 36.661 26.1568 34.1625 23.5106 36.806C23.5106 36.806 20.2363 41.6245 15.0933 40.3962L32.6578 47.8174L32.75 47.9008L31.5664 50.6868C31.4044 50.9416 31.2661 51.2108 31.1534 51.4909C30.3243 53.5807 31.8903 55.6595 33.3707 56.2448C34.851 56.8301 36.7233 55.6104 37.5525 53.5205C38.3703 51.4592 37.571 48.8404 36.1284 48.2076Z" fill="#01417F"/>
<path d="M45.5559 90.0596C39.1797 86.4205 40.4557 78.4345 40.4557 78.4345C40.2953 73.2465 36.0014 73.9809 36.0014 73.9809L34.4387 74.3369C33.7128 74.0005 32.9134 73.8529 32.115 73.9078L29.7378 74.3072C35.1507 75.5768 34.706 80.0971 34.706 80.0971L35.4644 85.3824L21.2809 79.6706L22.9094 75.8376C23.1345 75.4836 23.3265 75.1098 23.483 74.7208C24.6346 71.8182 22.4596 68.931 20.4035 68.118C18.3473 67.3051 15.7469 68.9992 14.5953 71.9018C13.4594 74.7648 14.5695 78.4021 16.5732 79.2808L16.5715 79.2843L20.8382 81.0581L20.87 80.9576L45.5559 90.0596ZM38.3533 80.773L38.8097 85.8495C36.1317 82.3008 36.6791 78.0846 36.6791 78.0846C36.6413 77.1055 36.3105 76.1601 35.7292 75.3706C38.8054 77.2083 38.3533 80.773 38.3533 80.773Z" fill="#01417F"/>
</g>
<defs>
<clipPath id="clip0_904_3449">
<rect width="313" height="272" fill="white" transform="translate(0.5)"/>
</clipPath>
</defs>
</svg>
